<?xml version="1.0" standalone="no"?>
<!DOCTYPE svg PUBLIC "-//W3C//DTD SVG 20010904//EN"
 "http://www.w3.org/TR/2001/REC-SVG-20010904/DTD/svg10.dtd">
<svg version="1.0" xmlns="http://www.w3.org/2000/svg"
 width="512.000000pt" height="512.000000pt" viewBox="0 0 512.000000 512.000000"
 preserveAspectRatio="xMidYMid meet">
<metadata>
Created by potrace 1.14, written by Peter Selinger 2001-2017
</metadata>
<g transform="translate(0.000000,512.000000) scale(0.100000,-0.100000)"
fill="#000000" stroke="none">
<path d="M2425 4234 c-41 -31 -118 -64 -150 -64 -26 0 -44 -9 -73 -37 -46 -45
-89 -73 -157 -106 -90 -43 -125 -105 -139 -245 -4 -35 -12 -74 -18 -87 -7 -17
-7 -66 2 -172 7 -81 12 -155 12 -163 -1 -8 6 -51 15 -96 l15 -81 -24 -24 -25
-25 17 -95 c17 -96 51 -189 77 -210 8 -7 31 -15 51 -18 36 -6 38 -9 64 -85 15
-44 38 -91 51 -105 45 -50 57 -80 67 -173 14 -119 6 -170 -23 -167 -35 4 -64
-10 -90 -44 -14 -18 -46 -54 -71 -82 -25 -27 -48 -58 -52 -67 -3 -10 -9 -18
-14 -18 -5 0 -24 -13 -42 -29 -18 -16 -87 -57 -153 -91 -66 -35 -124 -67 -130
-71 -5 -5 -21 -9 -36 -9 -15 0 -34 -7 -43 -15 -8 -8 -19 -15 -24 -15 -5 0 -23
-7 -38 -15 -16 -8 -37 -15 -47 -15 -9 0 -34 -11 -55 -23 -20 -13 -66 -32 -101
-43 -35 -10 -73 -29 -85 -41 -11 -12 -28 -23 -36 -23 -59 0 -252 -297 -341
-521 -16 -43 -89 -162 -108 -179 -17 -14 -70 -91 -94 -134 l-27 -48 19 -74
c10 -40 32 -94 47 -120 16 -25 36 -57 44 -70 13 -21 13 -25 -5 -38 -11 -8 -20
-18 -20 -23 0 -4 -13 -20 -28 -35 -15 -15 -30 -41 -34 -58 -3 -17 -14 -35 -24
-41 -38 -20 -17 -142 35 -197 17 -18 57 -49 89 -69 79 -48 118 -42 226 32 97
67 145 116 177 178 18 34 35 53 58 62 41 17 96 62 96 79 0 7 21 32 46 56 36
34 48 40 55 29 18 -30 51 -189 64 -309 7 -69 16 -142 20 -163 l7 -37 1077 2
1076 3 7 130 c4 72 13 162 22 200 27 130 38 170 47 179 11 12 74 -47 92 -84 7
-13 32 -35 55 -48 24 -14 47 -35 52 -47 5 -13 44 -58 87 -100 58 -58 97 -86
151 -112 39 -18 72 -38 72 -44 0 -19 46 -27 93 -17 77 16 118 94 63 119 -13 6
-35 32 -49 58 -14 25 -38 57 -52 71 -15 14 -33 37 -41 53 -8 15 -21 27 -29 27
-8 0 -15 7 -15 15 0 8 6 15 13 15 8 0 26 14 40 30 15 17 33 30 40 30 11 0 73
60 136 132 14 16 30 55 38 90 8 35 17 73 20 86 3 13 -1 30 -9 40 -8 9 -25 38
-37 64 -13 27 -26 50 -31 53 -11 7 -90 123 -90 131 0 4 -11 22 -24 39 -14 18
-28 45 -32 61 -9 39 -161 344 -184 369 -10 11 -25 34 -33 50 -8 17 -28 42 -44
57 -31 30 -191 108 -268 131 -27 8 -66 23 -85 34 -19 11 -48 23 -65 27 -16 4
-75 30 -130 58 -224 113 -295 158 -329 207 -14 20 -40 53 -58 74 -18 20 -43
51 -56 67 -15 19 -33 30 -48 30 -30 0 -30 -15 1 -65 31 -51 32 -83 2 -94 -13
-5 -29 -16 -36 -25 -20 -24 -118 -67 -172 -75 -54 -9 -88 1 -90 26 -1 10 -3
29 -5 43 -13 84 -11 97 20 156 29 53 37 60 78 72 30 8 49 20 53 32 4 11 11 20
16 20 5 0 9 11 9 24 0 14 5 28 10 31 17 11 47 78 59 132 6 29 26 76 44 105 27
43 35 67 40 123 7 87 12 99 44 114 l25 12 -27 21 -27 21 -17 -21 c-15 -20 -77
-52 -101 -52 -5 0 -10 7 -10 15 0 8 -10 33 -21 55 l-21 40 -52 -6 c-28 -4 -60
-10 -71 -14 -17 -6 -13 -10 23 -20 57 -18 54 -34 -5 -26 -89 12 -108 14 -175
15 -53 1 -68 4 -68 16 0 8 9 15 19 15 34 0 49 10 44 31 -6 20 20 28 32 9 11
-18 39 -10 58 16 27 37 18 55 -35 70 -27 8 -69 20 -95 28 -33 9 -54 11 -66 4
-10 -5 -25 -7 -34 -4 -11 4 -13 2 -9 -9 3 -8 -2 -28 -12 -44 -16 -28 -16 -31
2 -50 27 -30 14 -51 -32 -51 -22 0 -59 -3 -83 -6 -43 -6 -45 -5 -66 33 -12 21
-31 47 -43 58 -11 10 -20 24 -20 31 0 19 -44 28 -69 14 -14 -7 -21 -20 -21
-40 0 -37 -11 -38 -29 -2 -10 20 -15 93 -18 287 -3 229 -1 266 14 314 17 52
60 101 87 101 7 0 21 9 31 20 51 56 209 96 414 106 107 5 150 4 155 -5 4 -6
16 -11 27 -11 30 0 131 -55 159 -87 52 -59 79 -140 86 -258 2 -38 9 -83 14
-100 5 -16 12 -68 16 -114 7 -83 7 -83 40 -97 19 -8 34 -19 34 -24 0 -6 5 -10
10 -10 6 0 10 16 10 35 0 25 -4 35 -15 35 -13 0 -15 15 -13 93 4 194 -29 464
-63 502 -5 5 -9 18 -9 28 0 22 -54 133 -78 160 -8 9 -43 31 -76 47 -34 17 -83
46 -111 65 -29 21 -62 35 -79 35 -16 0 -37 7 -47 16 -13 12 -22 13 -35 6 -15
-8 -25 -4 -52 19 -37 32 -58 36 -87 13z m-425 -1300 c0 -31 -2 -35 -15 -24
-16 13 -20 42 -8 53 15 15 23 5 23 -29z m664 -71 c32 -15 37 -15 60 0 26 17
57 13 55 -7 0 -6 -16 -38 -34 -71 -19 -33 -44 -78 -56 -100 -11 -22 -31 -50
-42 -62 -19 -21 -22 -22 -37 -8 -19 18 -93 24 -127 12 -19 -7 -23 -5 -23 12 0
18 6 21 45 21 75 0 144 47 145 98 0 25 1 25 -98 22 -67 -2 -74 0 -79 19 -4 15
-13 21 -34 21 -44 0 -43 17 3 39 56 25 173 28 222 4z m-468 -672 c-9 -16 -16
-37 -16 -46 0 -19 -24 -30 -46 -21 -12 5 -7 16 27 56 46 55 59 59 35 11z m932
-673 c7 -7 12 -26 12 -42 l1 -31 22 28 c15 17 32 27 50 27 35 0 35 -22 0 -49
-27 -19 -27 -20 -9 -34 24 -17 13 -37 -20 -37 -19 0 -24 -5 -24 -25 0 -14 -4
-25 -10 -25 -20 0 -9 -31 15 -42 21 -9 28 -8 46 8 12 10 25 29 30 42 6 17 16
22 32 20 19 -3 22 -10 25 -51 2 -32 7 -47 15 -44 7 2 11 18 9 36 -2 31 19 44
33 21 4 -6 13 -5 25 2 37 23 41 -4 8 -54 -26 -39 -37 -48 -60 -48 -16 0 -39 6
-51 12 -12 7 -56 15 -97 18 l-75 5 -3 33 c-3 32 -15 41 -27 22 -3 -5 -15 -10
-26 -10 -10 0 -19 -4 -19 -10 0 -5 -9 -10 -21 -10 -35 0 -21 43 19 56 l33 10
-26 12 c-44 20 -19 35 47 28 53 -5 59 -4 56 12 -2 9 -12 17 -23 18 -11 0 -28
4 -38 8 -10 5 -23 4 -31 -3 -33 -27 -36 46 -3 83 24 27 65 34 85 14z m199 -30
c4 -7 7 -26 8 -42 0 -41 23 -45 36 -7 14 39 46 41 78 7 18 -19 21 -31 16 -54
-3 -17 -12 -32 -18 -35 -21 -7 -120 2 -131 13 -5 5 -19 10 -31 10 -12 0 -30 6
-40 14 -18 13 -18 16 19 60 39 48 50 54 63 34z m241 -60 c2 -10 -1 -18 -7 -18
-6 0 -20 -18 -31 -40 -11 -22 -25 -40 -31 -40 -16 0 -23 31 -11 50 6 10 7 23
2 31 -13 20 4 34 42 34 23 0 34 -5 36 -17z m-28 -132 c6 -8 21 -16 33 -18 20
-3 22 -9 22 -66 1 -65 -10 -88 -27 -58 -5 9 -21 16 -36 16 -16 0 -32 4 -37 9
-6 5 -26 11 -45 13 -24 2 -36 9 -38 21 -5 24 63 24 77 0 12 -22 17 -17 26 25
6 28 4 32 -14 32 -12 0 -30 -6 -41 -12 -28 -18 -46 1 -31 31 9 16 21 21 55 21
26 0 48 -6 56 -14z m-415 -81 c16 -51 15 -51 39 -20 24 30 56 30 56 0 0 -17
16 -20 25 -5 10 17 75 12 75 -5 0 -9 -6 -17 -12 -19 -7 -2 -22 -8 -33 -12 -11
-4 -29 -8 -39 -8 -11 -1 -21 -6 -23 -13 -3 -8 11 -13 39 -15 30 -2 43 -7 43
-18 0 -21 -53 -25 -74 -6 -10 10 -41 16 -86 18 -55 2 -70 6 -68 18 3 22 14 73
18 88 6 17 35 15 40 -3z"/>
<path d="M3060 1480 c0 -5 7 -10 15 -10 8 0 15 5 15 10 0 6 -7 10 -15 10 -8 0
-15 -4 -15 -10z"/>
<path d="M3407 1423 c-12 -11 -8 -23 8 -23 8 0 15 7 15 15 0 16 -12 20 -23 8z"/>
<path d="M2600 3551 c-22 -18 -24 -25 -22 -90 3 -109 34 -165 71 -128 10 10
15 8 25 -6 18 -24 93 -14 101 14 8 24 21 24 52 0 34 -28 53 -17 53 30 0 34 -5
43 -41 69 -23 16 -50 32 -60 35 -11 4 -17 11 -14 16 8 12 52 12 60 -1 9 -15
55 -12 55 3 0 60 -218 105 -280 58z m114 -202 c-3 -5 -10 -7 -15 -3 -5 3 -7
10 -3 15 3 5 10 7 15 3 5 -3 7 -10 3 -15z"/>
<path d="M2193 3531 c-90 -36 -153 -134 -153 -238 0 -75 11 -87 65 -69 26 9
44 11 55 4 9 -6 28 -6 50 -1 28 8 34 14 33 31 -2 15 3 22 15 22 9 0 30 7 46
15 21 11 32 12 42 4 7 -6 28 -9 46 -7 l33 3 -1 90 c0 82 -2 92 -26 118 -14 15
-32 27 -41 27 -9 0 -19 5 -22 10 -9 15 -95 10 -142 -9z"/>
</g>
</svg>
